<svg width="1505" height="923" viewBox="0 0 1505 923" fill="none" xmlns="http://www.w3.org/2000/svg">
<path d="M1502.69 863.14C1500.17 862.579 1498.88 859.925 1497.26 858.124C1489.83 849.859 1481.09 842.89 1473.54 834.717C1449.19 808.372 1425.54 780.253 1404.88 750.91C1384.52 721.978 1369.64 688.209 1348.56 660.102C1341.77 651.045 1335.47 638.892 1330.06 628.858C1320.86 611.763 1317.75 614.705 1298.4 618.513C1243.83 629.247 1188.47 624.861 1133.5 628.962C1096.76 631.704 1059.23 635.546 1022.42 635.546C940.14 635.546 858.519 636.815 776.439 640.77C674.235 645.696 570.697 641.188 468.278 641.188C412.952 641.188 358.214 641.851 303.695 630.948C289.836 628.176 274.186 630.544 261.269 624.26C245.429 616.554 227.326 609.212 209.543 609.212C198.108 609.212 186.587 608.755 175.164 609.212C170.542 609.397 162.178 617.07 158.549 619.662C139.447 633.306 123.96 646.727 108.286 664.491C87.8055 687.702 72.6296 715.151 54.3655 739.938C43.8142 754.258 35.5838 768.844 31.3762 786.439C27.3958 803.085 19.6763 822.903 9.32739 836.702C7.41337 839.254 3.3333 843.605 2.11711 846.211C1.09143 848.409 7.12895 846.156 7.55094 846.002C17.0392 842.552 25.0613 835.584 34.5111 831.791C61.737 820.861 92.9442 819.089 121.871 817.997C134.897 817.505 147.919 816.295 160.952 816.116C161.177 816.113 167.387 815.321 166.073 817.161C161.454 823.627 166.626 820.439 169.103 815.698C183.578 787.99 179.199 747.425 178.09 717.471C177.147 692.02 172.865 666.631 172.865 641.188C172.865 632.764 174.279 623.676 170.148 616.005C163.625 603.891 183.503 613.432 188.748 614.437C228.464 622.046 269.861 622.379 310.174 622.379C319.734 622.379 317.913 619.818 311.01 614.019C301.883 606.353 287.98 609.212 276.944 609.212C262.192 609.212 249.399 605.512 234.832 603.569C230.517 602.994 212.936 599.593 212.365 594.165C211.532 586.25 205.723 577.185 202.96 569.817C196.284 552.013 189.231 534.078 187.913 514.956C186.229 490.552 184.151 466.267 184.151 441.808C184.151 438.36 184.151 434.912 184.151 431.463C184.151 426.517 188.47 414.413 184.046 416.625C171.16 423.068 148.683 423.146 134.619 420.7C129.902 419.88 125.997 419.237 121.139 419.237C107.462 419.237 122.462 419.159 128.036 419.342C180.718 421.069 236.216 416.757 288.334 424.775C296.488 426.03 281.817 401.377 281.333 400.428C263.647 365.735 243.51 329.411 231.592 292.169C229.8 286.567 231.527 279.132 225.427 277.226C209.807 272.345 187.888 276.285 171.82 276.285C166.312 276.285 120.647 280.05 119.154 274.822C118.887 273.889 120.199 276.569 120.199 277.539C120.199 284.052 119.106 289.919 117.064 296.14C105.721 330.697 92.8727 365.166 78.8178 398.547C73.9019 410.222 67.9627 421.015 62.9343 432.508C61.7403 435.237 59.9132 440.124 62.7253 439.927C73.4376 439.18 83.9008 435.651 94.3878 433.553C111.581 430.115 129.334 429.912 146.741 428.224C158.442 427.089 170.433 425.978 181.852 422.999C183.684 422.521 189.316 420.675 183.837 421.222C180.985 421.508 160.077 424.794 159.803 426.029C157.544 436.195 163.065 448.69 166.177 457.901C172.226 475.807 178.449 495.419 180.389 514.329C182.794 537.78 182.27 561.173 182.27 584.76C182.27 587.438 181.415 591.906 183.21 594.06C185.721 597.073 168.254 592.614 166.804 592.179C142.269 584.819 115.504 590.458 114.556 621.752C114.154 635.003 117.982 641.498 127.722 650.489C133.837 656.133 146.532 662.851 146.532 672.328C146.532 682.908 133.67 689.25 127.513 696.363C116.147 709.493 105.939 723.738 95.1193 737.325C89.8894 743.893 84.5027 741.569 81.7437 733.041C72.7806 705.337 73.2735 673.732 72.2345 645.055C70.7054 602.853 69.6792 561.062 66.4872 518.927C63.0886 474.066 55.5991 429.803 50.3947 385.171C44.3368 333.221 35.5561 280.194 35.5561 227.799C35.5561 186.953 39.5467 147.153 43.9159 106.582C47.4184 74.0585 46.874 -24.0953 48.7227 8.56437C50.9052 47.1218 70.0628 84.0504 87.282 117.659C107.623 157.36 135.002 192.715 155.101 232.501C170.194 262.381 182.808 292.07 201.079 320.383C224.979 357.418 246.996 395.529 271.51 432.195C313.543 495.062 350.501 567.054 405.997 619.349C427.648 639.75 449.084 659.454 475.488 673.791C485.095 679.008 516.724 686.331 505.792 686.331C501.225 686.331 497.217 681.449 492.625 680.793C483.101 679.432 484.756 692.258 485.52 698.557C489.191 728.849 511.938 747.914 539.44 758.434C580.863 774.279 627.79 783.055 671.524 789.783C691.02 792.782 710.571 795.409 729.938 799.188C735.358 800.245 744.405 802.075 750.21 803.576C752.141 804.076 756.645 804.634 755.539 806.293C754.401 808.001 741.546 806.711 741.014 806.711C712.067 806.711 683.122 806.628 654.177 807.129C582.559 808.369 509.363 805.835 438.496 817.788C428.841 819.417 417.677 819.762 408.923 824.476C396.367 831.237 413.644 839.045 420.314 843.912C426.651 848.537 428.323 849.506 428.778 841.091C430.749 804.629 423.013 776.895 406.415 743.7C397.097 725.063 381.498 705.116 376.007 684.868C373.038 673.92 401.252 683.594 407.774 684.032C421.829 684.976 436.012 684.45 450.095 684.45C458.201 684.45 464.195 705.698 466.397 711.201C475.408 733.729 487.317 754.806 496.387 777.243C497.766 780.653 499.5 781.918 501.612 784.558C505.196 789.038 511.308 797.068 503.911 797.307C480.282 798.069 456.429 803.548 433.376 808.488C425.603 810.153 434.616 816.293 436.929 817.997C445.758 824.503 452.399 833.633 461.694 840.15C474.23 848.94 487.534 857.657 501.194 864.603C507.97 868.048 516.22 871.54 523.87 872.44C535.318 873.787 536.674 868.689 543.515 860.423C551.441 850.846 558.246 841.489 568.804 834.821C578.574 828.65 589.795 828.347 601.302 827.82C645.945 825.774 690.512 824.283 734.849 818.415C747.627 816.724 758.23 825.898 771.945 825.416C781.053 825.097 789.828 823.203 798.801 821.759C807.413 820.373 819.276 820.978 827.433 817.579C829.426 816.749 829.05 814.513 829.628 812.877C831.873 806.516 837.196 802.075 841.436 797.098C852.113 784.564 859.986 772.905 873.307 762.718C874.705 761.649 883.032 754.631 881.145 758.643C872.345 777.342 861.518 794.618 851.572 812.668C847.791 819.53 837.2 832.683 848.019 821.863C855.408 814.474 865.77 804.831 871.113 796.053C872.26 794.168 886.113 767.914 879.055 769.197C876.028 769.747 868.116 774.735 875.502 774.735C885.052 774.735 894.481 770.973 904.134 770.973C912.61 770.973 917.643 776.616 926.183 776.616C943.409 776.616 952.026 756.909 955.964 741.296C959.125 728.767 960.967 715.313 962.861 702.528C964.286 692.909 965.177 691.974 975.192 691.974C1005.46 691.974 1035.94 692.122 1066.1 689.257C1072.66 688.634 1084.86 684.442 1091.39 686.749C1094.48 687.84 1085.41 709.989 1085.02 711.201C1071.51 752.628 1056.69 793.539 1041.86 834.508C1038.24 844.526 1038.89 852.387 1038.1 862.722C1037.57 869.536 992.925 855.67 989.717 855.093C968.728 851.322 947.369 848.878 926.287 845.584C924.628 845.325 899.835 842.252 901.104 841.3C913.038 832.349 922.818 817.155 931.512 805.248C943.645 788.632 947.449 773.017 951.576 753.418C953.303 745.212 951.376 745.324 954.501 749.343C960.787 757.423 969.263 759.817 978.745 763.345C998.41 770.662 1022.67 767.212 1043.32 767.212C1058.82 767.212 1074.32 767.212 1089.82 767.212C1094.87 767.212 1100.79 767.872 1105.39 765.331C1111.74 761.83 1114.02 776.777 1118.04 781.214C1123.52 787.277 1139.97 789.151 1146.88 784.454C1164.26 772.637 1180.08 760.953 1200.07 753.418C1204.01 751.933 1210.47 751.203 1213.86 748.298C1215.29 747.078 1215.02 745.261 1216.79 744.222C1220.14 742.249 1223.37 739.729 1227.13 738.893C1233.46 737.488 1216.57 761.239 1214.28 764.495C1196.16 790.29 1177.66 815.746 1155.34 838.06C1149.29 844.113 1146.47 847.313 1148.34 856.034C1151.01 868.474 1158.87 889.132 1168.93 897.624C1170.44 898.901 1173.08 902.296 1173.94 900.759C1184.47 882.042 1199.86 863.259 1214.07 847.152C1237.77 820.291 1266.16 796.837 1291.5 771.496C1305 758.004 1277 738.35 1268.83 729.384C1259.92 719.608 1251.74 709.312 1243.02 699.498C1240.27 696.405 1236.84 685.487 1235.7 689.466C1230.66 707.125 1223.53 722.49 1214.7 738.997C1207.9 751.717 1200.6 764.028 1192.55 775.989C1189.96 779.821 1186.41 784.124 1185.02 788.633C1184.63 789.903 1183.31 799.129 1181.05 797.934C1176.57 795.56 1173.67 787.453 1168.93 784.558C1161.3 779.897 1179.17 769.066 1179.17 760.628C1179.17 740.115 1139.38 733.676 1126.29 728.966C1120.75 726.969 1115.91 726.872 1117.31 719.874C1119.15 710.655 1125.43 696.598 1130.27 688.63C1135.6 679.84 1128.3 709.123 1126.5 719.247C1123.43 736.598 1122.34 753.576 1119.82 770.869C1118.52 779.735 1115.22 788.294 1115.22 797.307C1115.22 799.381 1115.78 796.975 1116.58 796.053C1120.84 791.137 1125.83 786.53 1130.89 782.468C1151.86 765.65 1167.46 755.873 1176.45 730.533C1179.82 721.033 1182.73 711.19 1180.63 700.961C1179.67 696.26 1174.21 690.093 1182.3 690.093C1197.4 690.093 1207.94 684.387 1221.8 678.598C1226.33 676.709 1238.99 671.941 1239.36 665.641C1239.76 658.776 1227.84 648.712 1221.39 648.712C1219.12 648.712 1213.03 648.244 1213.03 644.95C1213.03 642.324 1217.44 643.254 1219.09 641.606C1226.51 634.184 1238.9 632.242 1245.84 623.319C1249.32 618.842 1246.88 605.633 1246.88 600.226C1246.88 597.612 1248.09 592.778 1244.58 592.388C1230.79 590.855 1216.59 592.869 1202.89 594.06C1196.57 594.61 1195.67 593.615 1196.52 600.853C1197.77 611.609 1199.07 623.636 1203.2 633.665C1203.72 634.908 1153 635.501 1148.24 635.546C1143.95 635.586 1122.2 640.9 1127.34 632.829C1130.05 628.572 1132.15 624.993 1132.15 619.871C1132.15 618.736 1131.8 622.215 1131.1 623.11C1129.82 624.757 1126.07 625.377 1124.2 625.723C1118.16 626.847 1111.53 627.794 1105.39 628.022C1101.93 628.15 1097.33 630.914 1096.51 634.605C1094.56 643.397 1119.81 651.513 1124.52 653.206C1129.51 655 1155.47 659.979 1156.6 666.059C1158.49 676.281 1165.26 675.338 1174.78 675.045C1186.06 674.698 1195.39 669.084 1205.5 664.805C1215.29 660.664 1226.44 662.031 1236.22 658.117C1244.78 654.694 1255.29 654.644 1264.44 652.892C1267.87 652.235 1275.21 654.057 1269.45 651.011C1265.25 648.787 1266.24 650.09 1268.72 654.668C1273.63 663.727 1280.85 677.915 1289.2 684.346C1300.49 693.026 1301.43 707.688 1301.43 720.501C1301.43 734.087 1303.21 747.637 1310.84 759.27C1316.13 767.355 1328.54 773.261 1335.92 779.124C1345.46 786.711 1353.72 796.883 1364.34 802.949C1365.77 803.766 1350.03 817.535 1348.77 818.833C1341.46 826.357 1322.17 839.866 1320.24 849.973C1319.57 853.473 1331.76 857.498 1333.41 858.333C1337.51 860.414 1350.18 865.089 1348.35 871.499C1345.72 880.712 1305.76 880.652 1298.92 881.009C1261.4 882.963 1223.81 881.002 1186.28 882.367C1131.65 884.353 1077.31 896.699 1023.05 903.057C925.93 914.439 829.673 921.449 731.923 921.449C698.554 921.449 665.185 921.449 631.815 921.449" stroke="black" stroke-width="3" stroke-linecap="round"/>
</svg>
